<svg width="1200" height="360" viewBox="0 0 1200 360" xmlns="http://www.w3.org/2000/svg">
  <defs>
    <linearGradient id="grad" x1="0%" y1="0%" x2="100%" y2="100%">
      <stop offset="0%" stop-color="#4e54c8"/>
      <stop offset="100%" stop-color="#8f94fb"/>
    </linearGradient>

    <style>
      .title { font-family: "Poppins", sans-serif; font-size: 64px; font-weight: 700; fill: #ffffff; }
      .subtitle { font-family: "Poppins", sans-serif; font-size: 30px; fill: #f0f0f0; }
      .info { font-family: "Poppins", sans-serif; font-size: 22px; fill: #e8e8e8; }
      .icons { fill: white; }
    </style>
  </defs>

  <rect width="1200" height="360" fill="url(#grad)" rx="20"/>

  <!-- Profile photo -->
  <clipPath id="avatarMask">
    <circle cx="180" cy="180" r="80"/>
  </clipPath>
  <image href="sujanbasnet.png" x="100" y="100" width="160" height="160" clip-path="url(#avatarMask)"/>

  <!-- Name -->
  <text x="380" y="150" class="title">Sujan Basnet</text>

  <!-- Subtitle (fixed '&' → '&amp;') -->
  <text x="380" y="200" class="subtitle">Software Developer &amp; Open-Source Enthusiast</text>

  <!-- Additional info lines -->
  <text x="380" y="240" class="info">HolidayHimalaya.com — Web, Python, PHP, JS</text>
  <text x="380" y="275" class="info">Kathmandu, Nepal — Building Fast, Clean &amp; Responsive Web Apps</text>

  <!-- Social Icons -->
  <!-- GitHub -->
  <a href="https://github.com/sujan7206">
    <path class="icons" transform="translate(380, 300) scale(1.5)"
      d="M12 .5C5.4.5 0 5.9 0 12.5c0 5.3 3.4 9.8 8 11.4.6.1.8-.2.8-.5v-2c-3.2.7-3.9-1.5-3.9-1.5-.5-1.2-1.2-1.5-1.2-1.5-1-.7.1-.7.1-.7 1.1.1 1.7 1.2 1.7 1.2 1 .1.1 2.4 3.8 1.7.1-.8.4-1.4.7-1.7-2.5-.3-5.2-1.3-5.2-5.9 0-1.3.5-2.4 1.2-3.2-.1-.3-.5-1.5.1-3.1 0 0 1-.3 3.3 1.2a11.3 11.3 0 0 1 6 0c2.2-1.5 3.2-1.2 3.2-1.2.6 1.6.2 2.8.1 3.1.8.8 1.2 1.9 1.2 3.2 0 4.6-2.7 5.6-5.3 5.9.4.3.8 1 .8 2v2.9c0 .3.2.6.8.5a12 12 0 0 0 8-11.4C24 5.9 18.6.5 12 .5z"/>
  </a>

  <!-- LinkedIn -->
  <a href="https://linkedin.com/">
    <path class="icons" transform="translate(440, 300) scale(1.5)"
      d="M4.98 3.5a2.5 2.5 0 1 1 0 5 2.5 2.5 0 0 1 0-5zM.5 8h8.9v15.5H.5V8zm11.1 0h8.5v2.2h.1c1.2-2 4.2-2.2 5.8-.4 1 1.1 1.5 2.7 1.5 5.1v8.6H18.6V15c0-1.8-.1-4.1-2.5-4.1s-2.9 2-2.9 4v8.6H11.6V8z"/>
  </a>

  <!-- Portfolio -->
  <a href="https://holidayhimalaya.com">
    <circle cx="520" cy="315" r="12" stroke="white" stroke-width="2" fill="none"/>
    <circle cx="520" cy="315" r="5" fill="white"/>
  </a>
</svg>

